<svg width="250" height="250" viewBox="0 0 250 250" fill="none" xmlns="http://www.w3.org/2000/svg">
  <rect width="250" height="250" rx="25" fill="white" />
  <path
    d="M125.318 37.5786C128.592 37.5786 131.858 37.7721 135.094 38.1398V58.1688L126.747 66.7029L118.408 58.1882V37.8592C120.699 37.6657 123.008 37.5786 125.318 37.5786ZM125.318 25C118.73 25 112.294 25.6676 106.104 26.9448V63.4035L126.756 84.4775L147.408 63.3648V27.5544C140.319 25.8805 132.927 25 125.327 25H125.318Z"
    fill="#3B344C" />
  <path
    d="M124.371 185.697L132.71 194.212V212.093C130.258 212.306 127.788 212.422 125.318 212.422C122.213 212.422 119.109 212.247 116.024 211.909V194.241L124.371 185.707M124.371 167.922L103.72 189.025V222.562C110.657 224.149 117.898 225 125.318 225C132.047 225 138.635 224.304 145.014 222.959V188.996L124.362 167.922H124.371Z"
    fill="#3B344C" />
  <path
    d="M72.004 56.1455L85.8507 70.3013V82.3768H74.0673L60.0029 68.0081C61.4983 66.2181 63.06 64.4765 64.6973 62.8122C67.0162 60.4416 69.4486 58.2162 71.9945 56.1455M73.3764 39.7643C67.2055 43.7024 61.3658 48.4242 55.9994 53.9104C51.3428 58.6709 47.2541 63.7991 43.7617 69.1789L68.9753 94.9554L98.1546 94.936V65.086L73.3764 39.7546V39.7643Z"
    fill="#3B344C" />
  <path
    d="M59.4445 114.482L67.7923 123.016L59.4635 131.541H39.5784C39.3891 129.199 39.3039 126.838 39.3039 124.477C39.3039 121.13 39.4932 117.791 39.8529 114.482H59.4445ZM64.5365 101.904H29.4986C27.8613 109.151 27 116.708 27 124.477C27 131.212 27.6531 137.791 28.9024 144.119H64.5649L85.1787 123.007L64.5365 101.894V101.904Z"
    fill="#3B344C" />
  <path
    d="M71.323 164.815H83.1348V176.861L69.0704 191.24C67.3195 189.711 65.6159 188.115 63.988 186.441C61.6691 184.07 59.4923 181.583 57.4669 178.98L71.3135 164.825M66.2216 152.246L41.4434 177.577C45.2954 183.886 49.9141 189.856 55.2806 195.342C59.9371 200.103 64.9534 204.283 70.2157 207.853L95.4293 182.077L95.4103 152.246H66.2121H66.2216Z"
    fill="#3B344C" />
  <path
    d="M179.464 57.7031C181.348 59.3286 183.175 61.0316 184.916 62.8119C187.112 65.0567 189.185 67.4176 191.134 69.8946L178.916 82.3862H167.104V70.3397L179.474 57.6934M178.291 41.1187L154.8 65.1341L154.819 94.9648H184.017L207.215 71.2493C203.4 65.1148 198.876 59.2706 193.623 53.9101C188.863 49.0432 183.724 44.7761 178.281 41.1187H178.291Z"
    fill="#3B344C" />
  <path
    d="M176.171 169.13L189.488 182.744C185.797 187.011 181.699 190.93 177.288 194.394L164.369 181.186V169.13H176.171ZM181.263 156.552H152.065V186.402L175.783 210.649C187.699 203.305 197.978 193.407 205.871 181.709L181.263 156.552Z"
    fill="#3B344C" />
  <path
    d="M210.423 116.466C210.688 119.282 210.821 122.127 210.821 124.991C210.821 127.855 210.688 130.709 210.423 133.515H193.16L184.812 124.981L193.131 116.457H210.423M220.919 103.878H188.03L167.416 124.981L188.068 146.084H220.929C222.386 139.292 223.134 132.228 223.134 124.981C223.134 117.734 222.386 110.661 220.929 103.878H220.919Z"
    fill="#3B344C" />
</svg>