<svg width="400" height="400" viewBox="0 0 400 400" fill="none" xmlns="http://www.w3.org/2000/svg">
<path d="M200.512 25.1572C207.19 25.1572 213.849 25.5443 220.451 26.2796V66.3377L203.426 83.4059L186.421 66.3764V25.7184C191.092 25.3314 195.802 25.1572 200.512 25.1572ZM200.512 0C187.077 0 173.952 1.33527 161.328 3.8897V76.807L203.446 118.955L245.563 76.7296V5.10885C231.106 1.76101 216.031 0 200.531 0H200.512Z" fill="white"/>
<path d="M198.581 321.393L215.586 338.423V374.185C210.587 374.611 205.549 374.843 200.511 374.843C194.18 374.843 187.849 374.494 181.557 373.817V338.481L198.581 321.413M198.581 285.844L156.464 328.05V395.123C170.612 398.297 185.378 400 200.511 400C214.235 400 227.67 398.607 240.679 395.917V327.992L198.562 285.844H198.581Z" fill="white"/>
<path d="M91.782 62.2932L120.021 90.6047V114.756H95.9899L67.3068 86.0184C70.3566 82.4383 73.5414 78.955 76.8807 75.6265C81.6098 70.8853 86.5704 66.4344 91.7627 62.2932M94.5809 29.5307C81.9958 37.4069 70.0863 46.8505 59.142 57.8229C49.6453 67.344 41.3067 77.6004 34.1842 88.3599L85.6053 139.913L145.114 139.874V80.1742L94.5809 29.5114V29.5307Z" fill="white"/>
<path d="M66.168 178.965L83.1926 196.033L66.2066 213.082H25.6527C25.2666 208.399 25.0929 203.677 25.0929 198.955C25.0929 192.259 25.4789 185.583 26.2124 178.965H66.168ZM76.5526 153.807H5.09579C1.7565 168.302 0 183.416 0 198.955C0 212.424 1.33185 225.583 3.87975 238.239H76.6105L118.651 196.014L76.5526 153.788V153.807Z" fill="white"/>
<path d="M90.3922 279.632H114.481V303.725L85.7983 332.482C82.2274 329.424 78.753 326.231 75.433 322.883C70.7039 318.142 66.2644 313.169 62.1337 307.963L90.3729 279.652M79.9883 254.494L29.4551 305.157C37.3111 317.775 46.7306 329.715 57.6749 340.687C67.1716 350.208 77.4018 358.568 88.1338 365.709L139.555 314.156L139.516 254.494H79.969H79.9883Z" fill="white"/>
<path d="M310.94 65.4088C314.781 68.6599 318.506 72.0658 322.058 75.6265C326.536 80.1161 330.763 84.8379 334.739 89.792L309.82 114.775H285.731V90.6822L310.959 65.3895M308.546 32.24L260.638 80.2709L260.677 139.932H320.224L367.534 92.5012C359.755 80.2322 350.528 68.5438 339.816 57.8229C330.107 48.089 319.626 39.5549 308.527 32.24H308.546Z" fill="white"/>
<path d="M304.222 288.263L331.381 315.491C323.853 324.025 315.495 331.863 306.5 338.791L280.152 312.375V288.263H304.222ZM314.607 263.106H255.06V322.806L303.431 371.301C327.732 356.613 348.695 336.817 364.793 313.42L314.607 263.106Z" fill="white"/>
<path d="M374.077 182.932C374.618 188.563 374.888 194.253 374.888 199.981C374.888 205.709 374.618 211.418 374.077 217.03H338.87L321.845 199.961L338.812 182.912H374.077M395.483 157.755H328.408L286.368 199.961L328.485 242.167H395.503C398.475 228.582 400 214.456 400 199.961C400 185.467 398.475 171.321 395.503 157.755H395.483Z" fill="white"/>
</svg>
