<?xml version="1.0" standalone="no"?>
<!DOCTYPE svg PUBLIC "-//W3C//DTD SVG 20010904//EN"
 "http://www.w3.org/TR/2001/REC-SVG-20010904/DTD/svg10.dtd">
<svg version="1.0" xmlns="http://www.w3.org/2000/svg"
 width="250.000000pt" height="250.000000pt" viewBox="0 0 250.000000 250.000000"
 preserveAspectRatio="xMidYMid meet">
<metadata>
Created by potrace 1.14, written by Peter Selinger 2001-2017
</metadata>
<g transform="translate(0.000000,250.000000) scale(0.100000,-0.100000)"
fill="#000000" stroke="none">
<path d="M150 2479 c-57 -25 -115 -89 -135 -147 -22 -67 -23 -2082 0 -2158 19
-64 60 -113 121 -144 l49 -25 1070 0 1070 0 46 27 c53 31 94 80 114 139 22 62
22 2081 0 2156 -17 56 -69 119 -125 149 -34 18 -74 19 -1100 21 -1045 2 -1066
1 -1110 -18z"/>
</g>
</svg>
