<svg width="491" height="500" viewBox="0 0 491 500" fill="none" xmlns="http://www.w3.org/2000/svg">
<path d="M245.796 31.4465C253.983 31.4465 262.146 31.9303 270.238 32.8495V82.9221L249.369 104.257L228.523 82.9705V32.148C234.249 31.6642 240.022 31.4465 245.796 31.4465ZM245.796 0C229.328 0 213.238 1.66909 197.763 4.86212V96.0087L249.392 148.694L301.022 95.9119V6.38607C283.299 2.20126 264.82 0 245.82 0H245.796Z" fill="#3B344C"/>
<path d="M243.431 401.742L264.277 423.029V467.731C258.148 468.263 251.973 468.553 245.797 468.553C238.036 468.553 230.275 468.118 222.561 467.271V423.101L243.431 401.766M243.431 357.305L191.802 410.063V493.904C209.145 497.871 227.246 500 245.797 500C262.62 500 279.089 498.258 295.036 494.896V409.99L243.407 357.305H243.431Z" fill="#3B344C"/>
<path d="M112.512 77.8665L147.128 113.256V143.445H117.67L82.5089 107.523C86.2474 103.048 90.1515 98.6938 94.245 94.5332C100.042 88.6067 106.123 83.0431 112.488 77.8665M115.942 36.9134C100.515 46.7586 85.9161 58.5632 72.5001 72.2787C60.8587 84.18 50.6369 97.0005 41.9059 110.45L104.94 174.891L177.888 174.843V100.218L115.942 36.8893V36.9134Z" fill="#3B344C"/>
<path d="M81.1114 223.706L101.981 245.041L81.1587 266.352H31.446C30.9728 260.498 30.7598 254.596 30.7598 248.694C30.7598 240.324 31.2331 231.979 32.1322 223.706H81.1114ZM93.8412 192.259H6.24662C2.15319 210.377 0 229.27 0 248.694C0 265.53 1.63264 281.979 4.75595 297.799H93.9122L145.447 245.017L93.8412 192.235V192.259Z" fill="#3B344C"/>
<path d="M110.807 349.54H140.336V379.656L105.176 415.602C100.798 411.78 96.5392 407.789 92.4694 403.604C86.6724 397.678 81.2302 391.461 76.1667 384.954L110.783 349.565M98.0535 318.118L36.1079 381.446C45.7381 397.218 57.2849 412.143 70.7009 425.859C82.3423 437.76 94.8829 448.21 108.039 457.136L171.073 392.695L171.025 318.118H98.0299H98.0535Z" fill="#3B344C"/>
<path d="M381.161 81.7613C385.87 85.8252 390.437 90.0826 394.79 94.5335C400.28 100.145 405.462 106.048 410.336 112.24L379.789 143.469H350.259V113.353L381.185 81.7371M378.227 40.3003L319.5 100.339L319.547 174.916H392.542L450.537 115.627C441.001 100.291 429.691 85.68 416.559 72.279C404.657 60.1116 391.809 49.444 378.204 40.3003H378.227Z" fill="#3B344C"/>
<path d="M372.925 360.329L406.217 394.364C396.989 405.031 386.744 414.828 375.717 423.488L343.42 390.469V360.329H372.925ZM385.655 328.882H312.66V403.507L371.955 464.127C401.745 445.767 427.441 421.021 447.175 391.775L385.655 328.882Z" fill="#3B344C"/>
<path d="M458.56 228.665C459.222 235.704 459.553 242.816 459.553 249.976C459.553 257.136 459.222 264.272 458.56 271.287H415.401L394.532 249.951L415.33 228.64H458.56M484.8 197.194H402.577L351.042 249.951L402.671 302.709H484.824C488.468 285.728 490.337 268.07 490.337 249.951C490.337 231.833 488.468 214.151 484.824 197.194H484.8Z" fill="#3B344C"/>
</svg>
